# xmcd CD database file
#
# Track frame offsets:
#	150
#	13621
#	27062
#	40455
#	51263
#	61584
#	73282
#	85113
#	96496
#	108412
#	122611
#	136271
#	147491
#	158455
#	170531
#	181874
#
# Disc length: 2579 seconds
#
# Revision: 3
# Processed by: cddbd v1.5.2PL0 Copyright (c) Steve Scherf et al.
# Submitted via: CDex 1.51
#
DISCID=d50a1110
DTITLE=John Lee Hooker - Blues Is The Healer  [CD 08-10]
DYEAR=2005
DGENRE=Blues
TTITLE0=Too Much Boogie
TTITLE1=Need Somebody
TTITLE2=Please Take Me Back
TTITLE3=Gotta Boogie
TTITLE4=Stuttering Blues
TTITLE5=Pouring Down Rain
TTITLE6=Love My Baby
TTITLE7=Misbelieving Baby
TTITLE8=Wobbling Baby
TTITLE9=Goin' South
TTITLE10=My Baby Don't Love Me
TTITLE11=I Ain't Got Nobody
TTITLE12=Real Real Gone
TTITLE13=Guitar Lovin' Man
TTITLE14=Blue Monday
TTITLE15=My Baby Put Me Down
EXTD=10 CD Set YEAR: 2005
EXTT0=
EXTT1=
EXTT2=
EXTT3=
EXTT4=
EXTT5=
EXTT6=
EXTT7=
EXTT8=
EXTT9=
EXTT10=
EXTT11=
EXTT12=
EXTT13=
EXTT14=
EXTT15=
PLAYORDER=
